<?xml version="1.0" encoding="UTF-8" standalone="no"?>
<!DOCTYPE svg PUBLIC "-//W3C//DTD SVG 20010904//EN"
              "http://www.w3.org/TR/2001/REC-SVG-20010904/DTD/svg10.dtd">

<svg xmlns="http://www.w3.org/2000/svg"
     width="0.1in" height="0.059in"
     viewBox="0 0 100 59">
  <path id="Selection"
        fill="none" 
        stroke="white" 
        stroke-width="1"
        stroke-dasharray="1000"
        stroke-dashoffset="1000"
        d="M 0.13,0.50
           C 0.13,0.50 25.52,26.13 25.52,26.13
             25.52,26.13 50.66,0.89 51.55,0.63
             51.55,0.63 51.53,58.40 51.53,58.40
             51.53,58.40 48.11,54.90 48.11,54.90
             48.11,54.90 48.07,8.93 48.07,8.93
             48.07,8.93 27.75,28.63 27.80,28.95
             27.85,29.22 40.72,42.02 40.72,42.02
             40.72,42.02 40.72,26.84 40.72,26.84
             40.72,26.84 35.31,32.03 35.31,32.03
             34.82,31.37 33.02,29.75 33.02,29.43
             33.02,29.11 43.28,18.67 44.33,18.02
             44.33,18.02 44.12,50.78 44.12,50.78
             44.12,50.78 3.61,8.89 3.61,8.89
             3.61,8.89 3.66,54.74 3.66,54.74
             3.66,54.74 0.00,58.24 0.00,58.24
             0.00,58.24 0.13,0.50 0.13,0.50 Z
           M 55.67,1.15
           C 55.67,1.15 67.49,1.17 67.49,1.17
             70.50,1.17 73.55,1.08 76.52,1.62
             80.58,2.35 84.48,3.98 87.86,6.37
             93.30,10.22 97.46,16.05 99.08,22.58
             99.52,24.34 99.73,26.11 99.85,27.90
             99.85,27.90 99.97,29.20 99.97,29.20
             100.00,32.10 99.47,35.92 98.55,38.67
             97.19,42.73 95.27,45.72 92.43,48.88
             90.48,51.06 87.98,53.06 85.41,54.46
             82.42,56.09 79.13,57.28 75.74,57.71
             73.43,58.00 69.69,57.87 67.24,57.87
             67.24,57.87 55.67,57.86 55.67,57.86
             55.67,57.86 55.67,1.15 55.67,1.15 Z
           M 59.15,54.22
           C 59.15,54.22 70.23,54.22 70.23,54.22
             70.23,54.22 73.97,54.22 73.97,54.22
             76.73,54.21 80.28,53.02 82.73,51.78
             88.89,48.68 93.55,43.11 95.45,36.44
             95.88,34.95 96.38,32.66 96.39,31.12
             96.39,31.12 96.39,28.14 96.39,28.14
             96.39,24.01 94.31,18.91 92.01,15.55
             88.29,10.13 82.17,5.95 75.64,5.01
             74.82,4.89 74.61,4.84 73.45,4.78
             73.45,4.78 68.69,4.65 68.69,4.65
             68.69,4.65 59.15,4.65 59.15,4.65
             59.15,4.65 59.15,54.22 59.15,54.22 Z
           M 63.02,8.67
           C 66.59,8.67 73.32,8.45 76.55,9.15
             79.28,9.75 82.05,11.13 84.28,12.81
             94.08,20.20 95.35,34.72 87.18,43.80
             85.89,45.24 84.14,46.66 82.47,47.62
             79.95,49.07 76.65,50.32 73.71,50.33
             73.71,50.33 63.02,50.33 63.02,50.33
             63.02,50.33 63.02,46.69 63.02,46.69
             63.02,46.69 69.33,46.69 69.33,46.69
             73.77,46.69 76.35,46.84 80.41,44.50
             81.82,43.69 83.01,42.65 84.15,41.50
             89.29,36.30 90.31,28.41 87.08,21.91
             86.03,19.79 84.37,17.78 82.60,16.24
             80.60,14.48 77.87,13.12 75.26,12.63
             72.97,12.19 63.02,12.32 63.02,12.32
             63.02,12.32 63.02,8.67 63.02,8.67 Z
           M 7.54,18.31
           C 7.54,18.31 19.48,30.41 19.48,30.41
             19.48,30.41 16.92,32.91 16.92,32.91
             16.92,32.91 11.08,26.97 11.08,26.97
             11.08,26.97 11.05,47.35 11.05,47.35
             11.05,47.35 7.47,50.71 7.47,50.71
             7.47,50.71 7.54,18.31 7.54,18.31 Z
           M 74.27,5.39">
    <animate
      attributeName="stroke-dashoffset"
      from="1000"
      to="0"
      dur="0.8s"
      fill="freeze"
      restart="always"
    />
    <animate
      attributeName="fill"
      values="transparent;white"
      dur="0.2s"
      begin="0.7s"
      fill="freeze"
      restart="always"
    />
  </path>
</svg>
