<?xml version="1.0" encoding="UTF-8" standalone="no"?>
<!DOCTYPE svg PUBLIC "-//W3C//DTD SVG 20010904//EN"
              "http://www.w3.org/TR/2001/REC-SVG-20010904/DTD/svg10.dtd">

<svg xmlns="http://www.w3.org/2000/svg"
     width="0.813in" height="0.813in"
     viewBox="0 0 813 813">
  <path id="Selection"
        fill="none" stroke="black" stroke-width="1"
        d="M 22.00,182.00
           C 22.00,182.00 219.00,379.52 219.00,379.52
             219.00,379.52 414.09,185.03 421.00,183.00
             421.00,183.00 420.88,628.25 420.88,628.25
             420.88,628.25 394.31,601.25 394.31,601.25
             394.31,601.25 394.01,247.00 394.01,247.00
             394.01,247.00 236.33,398.80 236.75,401.28
             237.09,403.31 337.00,502.00 337.00,502.00
             337.00,502.00 337.00,385.00 337.00,385.00
             337.00,385.00 295.00,425.00 295.00,425.00
             291.17,419.94 277.20,407.40 277.20,404.96
             277.20,402.52 356.83,322.00 365.00,317.00
             365.00,317.00 363.35,569.52 363.35,569.52
             363.35,569.52 49.03,246.62 49.03,246.62
             49.03,246.62 49.40,600.00 49.40,600.00
             49.40,600.00 21.00,627.00 21.00,627.00
             21.00,627.00 22.00,182.00 22.00,182.00 Z
           M 453.00,187.00
           C 453.00,187.00 544.76,187.18 544.76,187.18
             568.06,187.18 591.76,186.46 614.76,190.61
             646.29,196.29 676.55,208.79 702.76,227.22
             744.99,256.90 777.29,301.86 789.86,352.18
             793.24,365.69 794.90,379.34 795.85,393.18
             795.85,393.18 796.75,403.18 796.75,403.18
             797.02,425.53 792.90,455.00 785.75,476.18
             775.21,507.45 760.33,530.54 738.27,554.90
             723.09,571.66 703.69,587.07 683.76,597.87
             660.54,610.46 635.05,619.62 608.76,622.90
             590.83,625.13 561.83,624.18 542.76,624.18
             542.76,624.18 453.00,624.09 453.00,624.09
             453.00,624.09 453.00,187.00 453.00,187.00 Z
           M 480.00,596.00
           C 480.00,596.00 566.00,596.00 566.00,596.00
             566.00,596.00 595.00,596.00 595.00,596.00
             616.40,595.97 643.96,586.79 663.00,577.25
             710.80,553.29 746.95,510.40 761.71,459.00
             765.01,447.51 768.94,429.83 769.00,418.00
             769.00,418.00 769.00,395.00 769.00,395.00
             768.95,363.20 752.84,323.86 734.98,298.00
             706.14,256.25 658.62,224.03 608.00,216.73
             601.61,215.81 600.00,215.44 591.00,215.00
             591.00,215.00 554.00,214.00 554.00,214.00
             554.00,214.00 480.00,214.00 480.00,214.00
             480.00,214.00 480.00,596.00 480.00,596.00 Z
           M 510.00,245.00
           C 537.76,245.00 589.97,243.24 615.00,248.66
             636.18,253.25 657.71,263.95 675.00,276.89
             751.03,333.83 760.92,445.75 697.51,515.71
             687.49,526.77 673.96,537.71 661.00,545.13
             641.41,556.33 615.83,565.96 593.00,566.00
             593.00,566.00 510.00,566.00 510.00,566.00
             510.00,566.00 510.00,538.00 510.00,538.00
             510.00,538.00 559.00,538.00 559.00,538.00
             593.49,538.00 613.48,539.15 645.00,521.13
             655.94,514.88 665.16,506.88 674.00,498.00
             713.90,457.91 721.80,397.14 696.73,347.00
             688.58,330.70 675.70,315.20 662.00,303.29
             646.45,289.77 625.30,279.29 605.00,275.46
             587.22,272.10 510.06,273.06 510.06,273.06
             510.06,273.06 510.00,245.00 510.00,245.00 Z
           M 79.50,319.25
           C 79.50,319.25 172.19,412.50 172.19,412.50
             172.19,412.50 152.31,431.81 152.31,431.81
             152.31,431.81 107.00,386.00 107.00,386.00
             107.00,386.00 106.73,543.09 106.73,543.09
             106.73,543.09 79.00,569.00 79.00,569.00
             79.00,569.00 79.50,319.25 79.50,319.25 Z
           M 597.31,219.72" />
</svg>
