<?xml version="1.0" encoding="UTF-8" standalone="no"?>
<!DOCTYPE svg PUBLIC "-//W3C//DTD SVG 20010904//EN"
              "http://www.w3.org/TR/2001/REC-SVG-20010904/DTD/svg10.dtd">

<svg xmlns="http://www.w3.org/2000/svg"
     width="2.048in" height="2.048in"
     viewBox="0 0 2048 2048">
  <path id="Selection"
        fill="white" stroke="black" stroke-width="1"
        d="M 648.00,797.00
           C 657.94,804.11 694.03,841.03 705.00,852.00
             705.00,852.00 763.00,910.00 763.00,910.00
             763.00,910.00 792.91,940.00 792.91,940.00
             792.91,940.00 826.99,975.00 826.99,975.00
             833.59,981.77 838.02,988.29 846.00,994.00
             848.28,989.48 855.20,983.80 859.00,980.00
             859.00,980.00 890.00,950.00 890.00,950.00
             890.00,950.00 931.00,909.99 931.00,909.99
             931.00,909.99 994.00,847.00 994.00,847.00
             994.00,847.00 1018.00,823.04 1018.00,823.04
             1018.00,823.04 1029.00,813.00 1029.00,813.00
             1034.10,807.96 1040.09,800.03 1047.00,798.00
             1047.00,798.00 1047.00,816.00 1047.00,816.00
             1047.00,816.00 1048.00,832.00 1048.00,832.00
             1048.00,832.00 1048.00,1243.00 1048.00,1243.00
             1040.67,1238.72 1034.06,1231.06 1028.00,1225.00
             1025.87,1222.87 1021.22,1218.58 1020.01,1216.00
             1019.08,1213.62 1019.86,1210.56 1020.01,1208.00
             1020.01,1208.00 1020.01,1194.00 1020.01,1194.00
             1020.01,1194.00 1020.01,1140.00 1020.01,1140.00
             1020.01,1140.00 1020.01,862.00 1020.01,862.00
             1020.01,862.00 974.00,907.99 974.00,907.99
             974.00,907.99 959.00,922.00 959.00,922.00
             959.00,922.00 902.00,978.17 902.00,978.17
             902.00,978.17 872.00,1006.58 872.00,1006.58
             870.09,1008.23 862.33,1013.80 862.75,1016.28
             863.09,1018.31 868.36,1022.47 870.00,1024.04
             870.00,1024.04 889.00,1042.00 889.00,1042.00
             889.00,1042.00 942.99,1096.00 942.99,1096.00
             942.99,1096.00 963.00,1117.00 963.00,1117.00
             963.00,1117.00 963.00,1000.00 963.00,1000.00
             963.00,1000.00 921.00,1040.00 921.00,1040.00
             917.17,1034.94 912.66,1030.47 908.00,1026.17
             906.37,1024.66 903.20,1022.40 903.20,1019.96
             903.20,1017.52 906.40,1014.64 908.00,1013.00
             908.00,1013.00 924.32,997.49 924.32,997.49
             924.32,997.49 965.91,956.04 965.91,956.04
             972.67,949.01 982.83,937.00 991.00,932.00
             991.00,932.00 991.00,1018.00 991.00,1018.00
             991.00,1018.00 990.00,1033.00 990.00,1033.00
             990.00,1033.00 990.00,1184.00 990.00,1184.00
             990.00,1184.00 978.99,1174.00 978.99,1174.00
             978.99,1174.00 959.61,1154.28 959.61,1154.28
             959.61,1154.28 920.01,1114.00 920.01,1114.00
             920.01,1114.00 900.00,1093.00 900.00,1093.00
             900.00,1093.00 783.96,972.00 783.96,972.00
             783.96,972.00 747.00,935.00 747.00,935.00
             747.00,935.00 675.00,863.00 675.00,863.00
             675.00,863.00 675.00,1048.00 675.00,1048.00
             675.00,1048.00 675.00,1141.00 675.00,1141.00
             675.00,1141.00 676.00,1156.00 676.00,1156.00
             676.00,1156.00 676.00,1208.00 676.00,1208.00
             676.00,1210.09 676.12,1213.06 675.40,1215.00
             673.97,1218.90 664.38,1227.62 661.00,1231.00
             656.68,1235.32 652.99,1240.24 647.00,1242.00
             647.00,1242.00 647.00,984.00 647.00,984.00
             647.00,984.00 647.00,854.00 647.00,854.00
             647.00,854.00 648.00,839.00 648.00,839.00
             648.00,839.00 648.00,797.00 648.00,797.00 Z
           M 1078.00,802.00
           C 1078.00,802.00 1171.00,802.00 1171.00,802.00
             1194.30,802.00 1218.00,801.28 1241.00,805.42
             1272.53,811.11 1302.79,823.61 1329.00,842.04
             1371.23,871.72 1403.53,916.68 1416.11,967.00
             1419.48,980.51 1421.14,994.16 1422.09,1008.00
             1422.09,1008.00 1423.00,1018.00 1423.00,1018.00
             1423.26,1040.34 1419.15,1069.81 1412.00,1091.00
             1401.45,1122.26 1386.57,1145.35 1364.51,1169.72
             1349.33,1186.48 1329.93,1201.89 1310.00,1212.69
             1286.79,1225.28 1261.29,1234.44 1235.00,1237.71
             1217.07,1239.95 1188.07,1239.00 1169.00,1239.00
             1169.00,1239.00 1079.00,1239.00 1079.00,1239.00
             1079.00,1239.00 1079.00,1151.00 1079.00,1151.00
             1079.00,1151.00 1078.00,1136.00 1078.00,1136.00
             1078.00,1136.00 1078.00,802.00 1078.00,802.00 Z
           M 1106.00,1211.00
           C 1106.00,1211.00 1128.00,1212.00 1128.00,1212.00
             1128.00,1212.00 1176.00,1212.00 1176.00,1212.00
             1176.00,1212.00 1192.00,1211.00 1192.00,1211.00
             1192.00,1211.00 1221.00,1211.00 1221.00,1211.00
             1242.40,1210.97 1269.96,1201.79 1289.00,1192.25
             1336.80,1168.29 1372.95,1125.40 1387.71,1074.00
             1391.01,1062.51 1394.94,1044.83 1395.00,1033.00
             1395.00,1033.00 1395.00,1010.00 1395.00,1010.00
             1394.95,978.20 1378.84,938.86 1360.98,913.00
             1332.14,871.25 1284.62,839.03 1234.00,831.73
             1227.61,830.81 1223.58,830.01 1217.00,830.00
             1217.00,830.00 1196.00,830.00 1196.00,830.00
             1196.00,830.00 1180.00,829.00 1180.00,829.00
             1180.00,829.00 1106.00,829.00 1106.00,829.00
             1106.00,829.00 1106.00,1211.00 1106.00,1211.00 Z
           M 1136.00,860.00
           C 1163.76,860.00 1215.97,858.24 1241.00,863.66
             1262.18,868.25 1283.71,878.95 1301.00,891.89
             1377.03,948.83 1386.92,1060.75 1323.51,1130.71
             1313.49,1141.77 1299.96,1152.71 1287.00,1160.13
             1267.41,1171.33 1241.83,1180.96 1219.00,1181.00
             1219.00,1181.00 1136.00,1181.00 1136.00,1181.00
             1136.00,1181.00 1136.00,1153.00 1136.00,1153.00
             1136.00,1153.00 1185.00,1153.00 1185.00,1153.00
             1219.49,1153.00 1239.48,1154.15 1271.00,1136.13
             1281.94,1129.88 1291.16,1121.88 1300.00,1113.00
             1339.90,1072.91 1347.80,1012.14 1322.73,962.00
             1314.58,945.70 1301.70,930.20 1288.00,918.29
             1272.45,904.77 1251.30,894.29 1231.00,890.46
             1213.22,887.10 1177.38,887.91 1158.00,888.00
             1153.72,888.02 1139.54,890.58 1137.02,887.40
             1135.77,885.81 1136.00,881.99 1136.00,880.00
             1136.00,880.00 1136.00,860.00 1136.00,860.00 Z
           M 704.00,933.00
           C 704.00,933.00 722.00,950.00 722.00,950.00
             722.00,950.00 752.00,980.00 752.00,980.00
             752.00,980.00 782.00,1010.00 782.00,1010.00
             782.00,1010.00 799.00,1028.00 799.00,1028.00
             799.00,1028.00 778.00,1048.00 778.00,1048.00
             778.00,1048.00 733.00,1001.00 733.00,1001.00
             733.00,1001.00 733.00,1151.00 733.00,1151.00
             732.98,1161.17 729.22,1161.78 722.00,1169.00
             716.14,1174.86 712.09,1179.50 705.00,1184.00
             705.00,1184.00 705.00,1018.00 705.00,1018.00
             705.00,1018.00 705.00,965.00 705.00,965.00
             705.00,965.00 704.00,933.00 704.00,933.00 Z" />
</svg>
